<svg xmlns="http://www.w3.org/2000/svg" viewBox="0 0 760 380" role="img" aria-labelledby="title description">
  <title id="title">Three, two, one—domino</title><desc id="description">Three separate hand snapshots shrink from three tiles to two, then one; playing the final tile leaves an empty hand.</desc>
  <defs><pattern id="felt" width="12" height="12" patternUnits="userSpaceOnUse" patternTransform="rotate(35)"><rect width="12" height="12" fill="#147A42"/><line x1="0" y1="0" x2="0" y2="12" stroke="#22A45B" stroke-opacity=".28" stroke-width="3"/></pattern></defs>
  <rect width="760" height="380" rx="18" fill="#052B43"/>
  <rect x="12" y="12" width="736" height="356" rx="13" fill="url(#felt)" stroke="#10698F" stroke-width="3"/>

<g data-tile-id="1-2" data-visible-halves="1-2" transform="translate(92 120) scale(0.78)" opacity="1"><g transform="rotate(0 28 56)">
    <rect x="1" y="1" width="54" height="110" rx="8" fill="#FFF9EA" stroke="#10698F" stroke-width="3"/>
    <line x1="7" y1="56" x2="49" y2="56" stroke="#17130F" stroke-width="2"/>
    <circle cx="30" cy="30" r="4.1" fill="#17130F"/><circle cx="18" cy="74" r="4.1" fill="#17130F"/><circle cx="42" cy="98" r="4.1" fill="#17130F"/>
  </g></g><g data-tile-id="2-4" data-visible-halves="2-4" transform="translate(150 120) scale(0.78)" opacity="1"><g transform="rotate(0 28 56)">
    <rect x="1" y="1" width="54" height="110" rx="8" fill="#FFF9EA" stroke="#10698F" stroke-width="3"/>
    <line x1="7" y1="56" x2="49" y2="56" stroke="#17130F" stroke-width="2"/>
    <circle cx="18" cy="18" r="4.1" fill="#17130F"/><circle cx="42" cy="42" r="4.1" fill="#17130F"/><circle cx="18" cy="74" r="4.1" fill="#17130F"/><circle cx="42" cy="74" r="4.1" fill="#17130F"/><circle cx="18" cy="98" r="4.1" fill="#17130F"/><circle cx="42" cy="98" r="4.1" fill="#17130F"/>
  </g></g><g data-tile-id="4-6" data-visible-halves="4-6" transform="translate(208 120) scale(0.78)" opacity="1"><g transform="rotate(0 28 56)">
    <rect x="1" y="1" width="54" height="110" rx="8" fill="#FFF9EA" stroke="#10698F" stroke-width="3"/>
    <line x1="7" y1="56" x2="49" y2="56" stroke="#17130F" stroke-width="2"/>
    <circle cx="18" cy="18" r="4.1" fill="#17130F"/><circle cx="42" cy="18" r="4.1" fill="#17130F"/><circle cx="18" cy="42" r="4.1" fill="#17130F"/><circle cx="42" cy="42" r="4.1" fill="#17130F"/><circle cx="18" cy="74" r="4.1" fill="#17130F"/><circle cx="42" cy="74" r="4.1" fill="#17130F"/><circle cx="18" cy="86" r="4.1" fill="#17130F"/><circle cx="42" cy="86" r="4.1" fill="#17130F"/><circle cx="18" cy="98" r="4.1" fill="#17130F"/><circle cx="42" cy="98" r="4.1" fill="#17130F"/>
  </g></g><g data-tile-id="2-4" data-visible-halves="2-4" transform="translate(310 120) scale(0.78)" opacity="1"><g transform="rotate(0 28 56)">
    <rect x="1" y="1" width="54" height="110" rx="8" fill="#FFF9EA" stroke="#10698F" stroke-width="3"/>
    <line x1="7" y1="56" x2="49" y2="56" stroke="#17130F" stroke-width="2"/>
    <circle cx="18" cy="18" r="4.1" fill="#17130F"/><circle cx="42" cy="42" r="4.1" fill="#17130F"/><circle cx="18" cy="74" r="4.1" fill="#17130F"/><circle cx="42" cy="74" r="4.1" fill="#17130F"/><circle cx="18" cy="98" r="4.1" fill="#17130F"/><circle cx="42" cy="98" r="4.1" fill="#17130F"/>
  </g></g><g data-tile-id="4-6" data-visible-halves="4-6" transform="translate(368 120) scale(0.78)" opacity="1"><g transform="rotate(0 28 56)">
    <rect x="1" y="1" width="54" height="110" rx="8" fill="#FFF9EA" stroke="#10698F" stroke-width="3"/>
    <line x1="7" y1="56" x2="49" y2="56" stroke="#17130F" stroke-width="2"/>
    <circle cx="18" cy="18" r="4.1" fill="#17130F"/><circle cx="42" cy="18" r="4.1" fill="#17130F"/><circle cx="18" cy="42" r="4.1" fill="#17130F"/><circle cx="42" cy="42" r="4.1" fill="#17130F"/><circle cx="18" cy="74" r="4.1" fill="#17130F"/><circle cx="42" cy="74" r="4.1" fill="#17130F"/><circle cx="18" cy="86" r="4.1" fill="#17130F"/><circle cx="42" cy="86" r="4.1" fill="#17130F"/><circle cx="18" cy="98" r="4.1" fill="#17130F"/><circle cx="42" cy="98" r="4.1" fill="#17130F"/>
  </g></g><g data-tile-id="4-6" data-visible-halves="4-6" transform="translate(500 120) scale(0.78)" opacity="1"><g transform="rotate(0 28 56)">
    <rect x="1" y="1" width="54" height="110" rx="8" fill="#FFF9EA" stroke="#FFC928" stroke-width="3"/>
    <line x1="7" y1="56" x2="49" y2="56" stroke="#17130F" stroke-width="2"/>
    <circle cx="18" cy="18" r="4.1" fill="#17130F"/><circle cx="42" cy="18" r="4.1" fill="#17130F"/><circle cx="18" cy="42" r="4.1" fill="#17130F"/><circle cx="42" cy="42" r="4.1" fill="#17130F"/><circle cx="18" cy="74" r="4.1" fill="#17130F"/><circle cx="42" cy="74" r="4.1" fill="#17130F"/><circle cx="18" cy="86" r="4.1" fill="#17130F"/><circle cx="42" cy="86" r="4.1" fill="#17130F"/><circle cx="18" cy="98" r="4.1" fill="#17130F"/><circle cx="42" cy="98" r="4.1" fill="#17130F"/>
  </g></g>
<g transform="translate(650 175)"><rect x="-81.5" y="-18" width="163" height="36" rx="18" fill="#FFC928"/><text text-anchor="middle" y="6" fill="#17130F" font-family="system-ui,sans-serif" font-size="15" font-weight="800">EMPTY · DOMINO!</text></g>
<text x="150" y="92" text-anchor="middle" fill="#B9DCEB" font-family="system-ui,sans-serif" font-size="19" font-weight="800">3 tiles</text><text x="340" y="92" text-anchor="middle" fill="#B9DCEB" font-family="system-ui,sans-serif" font-size="19" font-weight="800">2 tiles</text><text x="520" y="92" text-anchor="middle" fill="#FFC928" font-family="system-ui,sans-serif" font-size="19" font-weight="800">1 tile</text><text x="270" y="175" text-anchor="middle" fill="#B9DCEB" font-family="system-ui,sans-serif" font-size="19" font-weight="800">→</text><text x="465" y="175" text-anchor="middle" fill="#B9DCEB" font-family="system-ui,sans-serif" font-size="19" font-weight="800">→</text><text x="580" y="175" text-anchor="middle" fill="#FFC928" font-family="system-ui,sans-serif" font-size="19" font-weight="800">→</text><text x="380" y="330" text-anchor="middle" fill="#FFF9EA" font-family="system-ui,sans-serif" font-size="19" font-weight="800">Playing the last tile leaves no tiles: domino</text>
  </svg>